<?xml version="1.0" encoding="UTF-8" standalone="yes"?><svg xmlns="http://www.w3.org/2000/svg" version="1.1" viewBox="0 0 512 512"><rect width="512" height="512" fill="#FFFFFF"/><g fill="#5CB9F4"><path d="M0 256v256h512V0H0zM269.8 48.5c42.1 4.3 70 13.2 90.7 29 23.5 18 35.7 40.3 37.2 68 2 39-19.8 71.8-59 88.8-4 1.8-7.5 3.6-7.8 4.1-.2.5 2.9 1.9 7 3.3 29.9 9.7 53.7 29.9 65.7 55.8 11.5 24.9 11.9 59.4.9 85.6-9.5 22.4-28.2 43.2-50.3 55.7-36.3 20.6-101 29.7-186.2 26.3-26.2-1.1-66-4.4-68.1-5.7-1.1-.6-1.2-403.1-.1-403.8 1.5-.9 28.1-4.6 45.2-6.1 38-3.6 94.9-4 124.8-1"/><path d="M205.2 116c-4 .4-8.4 1.1-9.7 1.4l-2.5.6v94h22.8c40.5 0 58.9-4.9 73.8-19.5 10.3-10.2 14.3-22.2 12.3-37.5-2.4-19.4-15.4-32-38.9-37.5-8.5-2.1-44.8-3-57.8-1.5M193.4 279.9c-.2.2-.4 26-.4 57.2V394l2.8.7c1.5.4 14.2.8 28.2.8 20.2 0 27.2-.4 33.7-1.7 18.2-3.8 29.4-9.1 39.5-18.7 7.8-7.3 12-14.9 14.3-25.6 6.2-29.3-8.2-53.2-38-63.3-13.8-4.7-20.8-5.5-50.8-6.1-15.9-.3-29.1-.4-29.3-.2"/></g></svg>
