<?xml version="1.0" encoding="UTF-8" standalone="yes"?><svg xmlns="http://www.w3.org/2000/svg" viewBox="0 0 1170 1170"><title>icheckmovies.com icon</title><g transform="translate(-15 -15)"><circle fill="#331e10" cx="600" cy="600" r="585"/><circle fill="#fff" cx="600" cy="600" r="315.5"/><path fill="#b51435" d="M1116 163c-12 2-25 5-32 8-6 3-37 23-48 31-2 2-10 7-17 12-115 80-215 173-305 284-31 39-58 75-87 118-9 15-17 26-18 26 0 0-5-8-12-18q-51-78-117-129c-13-10-17-12-34-11-22 0-43 5-66 17-15 7-23 14-27 21-3 8-2 10 14 23 68 55 119 123 164 222 8 18 11 21 20 26 20 8 58 0 89-21 13-8 18-14 28-34 94-173 209-316 346-430 19-16 49-40 62-49 5-3 13-9 19-13 9-7 43-29 62-41 15-10 22-17 22-25s-5-11-19-15c-9-2-33-3-44-2"/></g></svg>
