<?xml version="1.0" encoding="UTF-8" standalone="yes"?><svg xmlns="http://www.w3.org/2000/svg" viewBox="0 0 500 500"><title>letterboxd.com icon</title><circle cx="250" cy="250" r="250" fill="#202830"/><g transform="translate(61 180)"><ellipse cx="189" cy="69.973" fill="#00E054" rx="70.079" ry="69.973"/><ellipse cx="307.921" cy="69.973" fill="#40BCF4" rx="70.079" ry="69.973"/><ellipse cx="70.079" cy="69.973" fill="#FF8000" rx="70.079" ry="69.973"/><path fill="#567" d="M129.54 107.022c-6.73-10.744-10.619-23.443-10.619-37.049s3.89-26.305 10.618-37.049c6.73 10.744 10.618 23.443 10.618 37.05 0 13.605-3.889 26.304-10.618 37.048M248.46 32.924c6.73 10.744 10.619 23.443 10.619 37.05 0 13.605-3.89 26.304-10.618 37.048-6.73-10.744-10.618-23.443-10.618-37.049s3.889-26.305 10.618-37.049"/></g></svg>
