<?xml version="1.0" encoding="UTF-8"?>
<svg width="100%" height="100%" viewBox="0 0 500 500" version="1.1" xmlns="http://www.w3.org/2000/svg" preserveAspectRatio="xMidYMid meet">
    <circle fill="#202830" cx="250" cy="250" r="250"></circle>
    <g transform="translate(61.000000, 180.000000)">
        <ellipse fill="#00E054" cx="189" cy="69.9732824" rx="70.0786517" ry="69.9732824"></ellipse>
        <ellipse fill="#40BCF4" cx="307.921348" cy="69.9732824" rx="70.0786517" ry="69.9732824"></ellipse>
        <ellipse fill="#FF8000" cx="70.0786517" cy="69.9732824" rx="70.0786517" ry="69.9732824"></ellipse>
        <path d="M129.539326,107.022244 C122.810493,96.2781677 118.921348,83.5792213 118.921348,69.9732824 C118.921348,56.3673435 122.810493,43.6683972 129.539326,32.9243209 C136.268159,43.6683972 140.157303,56.3673435 140.157303,69.9732824 C140.157303,83.5792213 136.268159,96.2781677 129.539326,107.022244 Z" fill="#556677"></path>
        <path d="M248.460674,32.9243209 C255.189507,43.6683972 259.078652,56.3673435 259.078652,69.9732824 C259.078652,83.5792213 255.189507,96.2781677 248.460674,107.022244 C241.731841,96.2781677 237.842697,83.5792213 237.842697,69.9732824 C237.842697,56.3673435 241.731841,43.6683972 248.460674,32.9243209 Z" fill="#556677"></path>
    </g>
</svg>
